<svg width="24" height="24" viewBox="0 0 24 24" fill="none" xmlns="http://www.w3.org/2000/svg">
<path d="M11.5 7C10.8078 7 10.1311 7.20527 9.55551 7.58986C8.97993 7.97444 8.53133 8.52107 8.26642 9.16061C8.00152 9.80015 7.9322 10.5039 8.06725 11.1828C8.2023 11.8617 8.53564 12.4854 9.02513 12.9749C9.51461 13.4644 10.1383 13.7977 10.8172 13.9327C11.4961 14.0678 12.1999 13.9985 12.8394 13.7336C13.4789 13.4687 14.0256 13.0201 14.4101 12.4445C14.7947 11.8689 15 11.1922 15 10.5C15 9.57174 14.6313 8.6815 13.9749 8.02513C13.3185 7.36875 12.4283 7 11.5 7ZM11.5 12.7784C11.0494 12.7784 10.6089 12.6447 10.2342 12.3944C9.85954 12.144 9.56752 11.7882 9.39507 11.3719C9.22263 10.9556 9.17751 10.4975 9.26542 10.0555C9.35333 9.61355 9.57032 9.20759 9.88896 8.88896C10.2076 8.57032 10.6136 8.35333 11.0555 8.26542C11.4975 8.17751 11.9556 8.22263 12.3719 8.39507C12.7882 8.56751 13.144 8.85954 13.3944 9.23421C13.6447 9.60888 13.7784 10.0494 13.7784 10.5C13.7767 11.1032 13.536 11.6811 13.1089 12.1071C12.6818 12.533 12.1032 12.7723 11.5 12.7723V12.7784Z" fill="black"/>
<path d="M11.4968 3C9.51455 3.00152 7.61348 3.72202 6.20883 5.00413C4.80418 6.28624 4.01009 8.02578 4 9.8428C4 12.5671 5.66737 14.848 6.88927 16.5106L7.11201 16.8139C8.32771 18.429 9.63189 19.9867 11.0195 21.4808L11.5032 22L11.9868 21.4808C13.3743 19.9865 14.6785 18.4289 15.8944 16.8139L16.1171 16.5048C17.3326 14.8422 19 12.5671 19 9.8428C18.9899 8.02477 18.1949 6.28435 16.7889 5.00207C15.3829 3.71979 13.4802 2.99998 11.4968 3ZM15.0543 15.8339L14.8252 16.1431C13.7306 17.6481 12.2796 19.3341 11.4968 20.1683C10.7459 19.3341 9.26305 17.6481 8.16843 16.1431L7.94569 15.8339C6.81926 14.2938 5.2728 12.1879 5.2728 9.81947C5.2728 9.07024 5.43379 8.32835 5.74658 7.63616C6.05937 6.94397 6.51782 6.31503 7.09578 5.78524C7.67373 5.25546 8.35986 4.83522 9.11499 4.5485C9.87012 4.26179 10.6795 4.11422 11.4968 4.11422C12.3142 4.11422 13.1235 4.26179 13.8786 4.5485C14.6338 4.83522 15.3199 5.25546 15.8979 5.78524C16.4758 6.31503 16.9343 6.94397 17.2471 7.63616C17.5598 8.32835 17.7208 9.07024 17.7208 9.81947C17.7208 12.2112 16.1807 14.3172 15.0543 15.8339Z" fill="black"/>
</svg>
