<svg width="287" height="73" viewBox="0 0 287 73" fill="none" xmlns="http://www.w3.org/2000/svg">
<path d="M23.7734 0.170732V13.7869H5.88367V0.170732H3.05176e-05V33.2975H5.88367V19.6814H23.7734V33.2975H29.6788V0.170732H23.7734Z" fill="#333333"/>
<path d="M46.635 6.06526H64.8721V0.170725H46.635C45.2021 0.170725 43.8777 0.409997 42.7053 0.888519C41.5329 1.36704 40.4908 2.04132 39.6224 2.91136C38.754 3.7814 38.0809 4.8037 37.6033 6.00001C37.1256 7.19631 36.8868 8.52312 36.8868 9.93694V23.5531C36.8868 24.9886 37.1256 26.3155 37.6033 27.49C38.0809 28.6646 38.754 29.7086 39.6224 30.5787C40.4908 31.4487 41.5112 32.123 42.7053 32.6015C43.8994 33.08 45.2238 33.3193 46.635 33.3193H64.8721V27.4248H46.635C44.1165 27.4248 42.7922 26.0979 42.7922 23.5748V19.7249H64.8721V13.8304H42.7705V9.93694C42.7705 7.41382 44.1165 6.06526 46.635 6.06526Z" fill="#333333"/>
<path d="M72.0802 0.170725V33.2975H77.9855V6.06526H98.3938V0.170725H72.0802Z" fill="#333333"/>
<path d="M171.559 27.403V0.170725H165.676V0.86676L165.09 0.692755C163.982 0.344738 162.875 0.170725 161.833 0.170725H154.972C153.539 0.170725 152.215 0.409997 151.043 0.888519C149.849 1.36704 148.828 2.04132 147.96 2.91136C147.113 3.7814 146.418 4.8037 145.941 6.00001C145.463 7.19631 145.224 8.52312 145.224 9.93694V27.403H141.881V37.4302H144.508L146.592 33.2975H170.257L172.341 37.4302H174.968V27.403H171.559ZM165.654 27.403H151.108V9.93694C151.108 7.41382 152.432 6.087 154.951 6.087H161.79C162.94 6.087 163.874 6.43503 164.59 7.15281C165.285 7.84884 165.654 8.80588 165.654 9.95868V27.403Z" fill="#333333"/>
<path d="M205.949 0.170725V13.7869H188.06V0.170725H182.176V33.2975H188.06V19.6814H205.949V33.2975H211.855V0.170725H205.949Z" fill="#333333"/>
<path d="M248.003 6.0435C247.504 4.84719 246.831 3.82491 245.963 2.95487C245.094 2.08483 244.074 1.41054 242.88 0.910265C241.686 0.409991 240.383 0.170725 238.993 0.170725H228.789C227.422 0.170725 226.141 0.431742 224.947 0.910265C223.752 1.41054 222.71 2.10657 221.842 2.97661C220.973 3.84665 220.279 4.8907 219.779 6.087C219.28 7.28331 219.041 8.56662 219.041 9.93694V23.5531C219.041 24.9886 219.28 26.3155 219.758 27.49C220.235 28.6646 220.908 29.7086 221.777 30.5787C222.623 31.4487 223.666 32.123 224.86 32.6015C226.054 33.08 227.356 33.3193 228.789 33.3193H238.993C240.448 33.3193 241.794 33.08 243.01 32.6232C244.204 32.1665 245.246 31.4922 246.093 30.6657C246.94 29.8174 247.591 28.7951 248.047 27.5988C248.503 26.3807 248.742 25.0321 248.742 23.5748V9.93694C248.742 8.54487 248.481 7.23981 248.003 6.0435ZM242.858 23.5531C242.858 26.0762 241.534 27.403 239.015 27.403H228.811C226.293 27.403 224.968 26.0762 224.968 23.5531V9.93694C224.968 8.84939 225.337 7.91409 226.075 7.17456C226.814 6.43502 227.725 6.06526 228.833 6.06526H239.037C240.188 6.06526 241.121 6.41327 241.838 7.13105C242.532 7.82708 242.901 8.78413 242.901 9.93694V23.5531H242.858Z" fill="#333333"/>
<path d="M282.849 16.745L283.132 16.4405C284.803 14.5917 285.628 12.3948 285.628 9.93694C285.628 8.61013 285.368 7.32681 284.869 6.15226C284.347 4.95595 283.653 3.9119 282.784 3.04186C281.916 2.17182 280.852 1.45404 279.68 0.95377C278.486 0.453496 277.226 0.192484 275.902 0.192484H255.971V33.341H275.902C277.248 33.341 278.529 33.08 279.701 32.5797C280.874 32.0795 281.916 31.3617 282.784 30.4916C283.653 29.6216 284.369 28.5776 284.869 27.403C285.368 26.2284 285.628 24.9451 285.628 23.5966C285.628 21.1387 284.782 18.9419 283.132 17.093L282.849 16.745ZM278.616 26.2719C277.878 27.0115 276.944 27.403 275.902 27.403H261.855V19.6814H275.902C276.966 19.6814 277.878 20.0512 278.616 20.8124C279.354 21.552 279.745 22.4873 279.745 23.5313C279.745 24.5754 279.354 25.5324 278.616 26.2719ZM278.616 12.6558C277.878 13.3953 276.944 13.7869 275.902 13.7869H261.855V6.06526H275.902C276.966 6.06526 277.878 6.45678 278.616 7.19631C279.354 7.93585 279.745 8.87114 279.745 9.91519C279.745 10.981 279.354 11.8945 278.616 12.6558Z" fill="#333333"/>
<path d="M128.767 9.93694C132.024 9.93694 134.651 12.5688 134.651 15.8315V23.5531C134.651 25.0104 134.412 26.359 133.956 27.577C133.5 28.7733 132.827 29.8174 132.002 30.6439C131.155 31.4922 130.135 32.1447 128.919 32.6015C127.725 33.0583 126.357 33.2975 124.903 33.2975H114.72C113.287 33.2975 111.963 33.0583 110.791 32.5797C109.597 32.1012 108.576 31.4269 107.708 30.5569C106.839 29.6869 106.166 28.6646 105.689 27.4683C105.211 26.2719 104.972 24.9669 104.972 23.5313H110.856C110.856 26.0544 112.18 27.3813 114.699 27.3813H124.881C127.009 27.3813 128.746 25.6629 128.746 23.5313V9.93694H128.767Z" fill="#333333"/>
<path d="M134.651 9.93694H128.767C128.767 8.78413 128.42 7.84883 127.703 7.13105C127.009 6.43502 126.053 6.06526 124.903 6.06526H114.72C113.635 6.06526 112.701 6.43502 111.963 7.17456C111.225 7.91409 110.856 8.82764 110.856 9.91519V23.5313C107.599 23.5313 104.972 20.8777 104.972 17.6368V9.93694C104.972 8.58838 105.211 7.28332 105.71 6.10876C106.21 4.91246 106.904 3.8684 107.773 2.99836C108.641 2.12832 109.705 1.43228 110.878 0.932011C112.072 0.431737 113.353 0.192484 114.72 0.192484H124.903C126.292 0.192484 127.595 0.453488 128.789 0.932011C129.983 1.43228 131.003 2.10657 131.872 2.97661C132.74 3.84665 133.413 4.86895 133.913 6.06526C134.412 7.23981 134.651 8.54487 134.651 9.93694Z" fill="#333333"/>
<path d="M74.12 56V44.48H75.632L79.808 53.144L83.96 44.48H85.488V55.992H83.904V48.112L80.184 56H79.424L75.696 48.112V56H74.12ZM89.3854 56L90.8414 53.016L86.8254 44.48H88.7054L91.7134 51.24L94.8014 44.48H96.5854L91.1934 56H89.3854ZM96.5663 56L101.158 50.104L96.9423 44.48H98.9663L102.83 49.752V44.48H104.502V49.752L108.366 44.48H110.39L106.174 50.104L110.766 56H108.67L104.502 50.6V56H102.83V50.6L98.6543 56H96.5663ZM116.272 56.24C115.12 56.24 114.138 55.9893 113.328 55.488C112.517 54.9813 111.896 54.2773 111.464 53.376C111.037 52.4747 110.824 51.4293 110.824 50.24C110.824 49.0507 111.037 48.0053 111.464 47.104C111.896 46.2027 112.517 45.5013 113.328 45C114.138 44.4933 115.12 44.24 116.272 44.24C117.6 44.24 118.698 44.576 119.568 45.248C120.442 45.92 121.05 46.824 121.392 47.96L119.696 48.416C119.472 47.6107 119.072 46.9787 118.496 46.52C117.925 46.0613 117.184 45.832 116.272 45.832C115.456 45.832 114.776 46.016 114.232 46.384C113.688 46.752 113.277 47.2667 113 47.928C112.728 48.5893 112.592 49.36 112.592 50.24C112.586 51.12 112.72 51.8907 112.992 52.552C113.269 53.2133 113.68 53.728 114.224 54.096C114.773 54.464 115.456 54.648 116.272 54.648C117.184 54.648 117.925 54.4187 118.496 53.96C119.072 53.496 119.472 52.864 119.696 52.064L121.392 52.52C121.05 53.656 120.442 54.56 119.568 55.232C118.698 55.904 117.6 56.24 116.272 56.24ZM123.151 56V44.48H124.823V49.856L129.647 44.48H131.727L126.631 50.104L132.103 56H129.959L124.823 50.496V56H123.151ZM142.293 56V44.48H140.597L134.925 53.04V44.48H133.229V56H134.925L140.597 47.432V56H142.293ZM144.526 56V44.48H151.886V46.056H146.198V49.288H150.926V50.864H146.198V54.424H151.886V56H144.526ZM161.819 56.24C160.667 56.24 159.685 55.9893 158.875 55.488C158.064 54.9813 157.443 54.2773 157.011 53.376C156.584 52.4747 156.371 51.4293 156.371 50.24C156.371 49.0507 156.584 48.0053 157.011 47.104C157.443 46.2027 158.064 45.5013 158.875 45C159.685 44.4933 160.667 44.24 161.819 44.24C163.147 44.24 164.245 44.576 165.115 45.248C165.989 45.92 166.597 46.824 166.939 47.96L165.243 48.416C165.019 47.6107 164.619 46.9787 164.043 46.52C163.472 46.0613 162.731 45.832 161.819 45.832C161.003 45.832 160.323 46.016 159.779 46.384C159.235 46.752 158.824 47.2667 158.547 47.928C158.275 48.5893 158.139 49.36 158.139 50.24C158.133 51.12 158.267 51.8907 158.539 52.552C158.816 53.2133 159.227 53.728 159.771 54.096C160.32 54.464 161.003 54.648 161.819 54.648C162.731 54.648 163.472 54.4187 164.043 53.96C164.619 53.496 165.019 52.864 165.243 52.064L166.939 52.52C166.597 53.656 165.989 54.56 165.115 55.232C164.245 55.904 163.147 56.24 161.819 56.24ZM169.87 56L171.326 53.016L167.31 44.48H169.19L172.198 51.24L175.286 44.48H177.07L171.678 56H169.87ZM178.323 56V44.48H179.835L184.011 53.144L188.163 44.48H189.691V55.992H188.107V48.112L184.387 56H183.627L179.899 48.112V56H178.323ZM191.933 56V44.48H193.605V49.856L198.429 44.48H200.509L195.413 50.104L200.885 56H198.741L193.605 50.496V56H191.933ZM211.075 56V44.48H209.379L203.707 53.04V44.48H202.011V56H203.707L209.379 47.432V56H211.075Z" fill="black"/>
</svg>
