<svg width="45" height="46" viewBox="0 0 45 46" fill="none" xmlns="http://www.w3.org/2000/svg">
<g clip-path="url(#clip0_314_1859)">
<circle cx="22.5" cy="23.2766" r="22" stroke="#2F80ED"/>
<path d="M30.515 13.9015L11.0273 21.6401C9.6973 22.1902 9.705 22.9542 10.7833 23.2949L15.7865 24.9021L27.3627 17.3809C27.9101 17.0379 28.4102 17.2224 27.9991 17.5982L18.6201 26.3147H18.6179L18.6201 26.3158L18.275 31.6266C18.7806 31.6266 19.0037 31.3877 19.2873 31.1059L21.7175 28.6724L26.7725 32.5173C27.7045 33.0459 28.3739 32.7743 28.6058 31.6288L31.9241 15.5246C32.2638 14.1223 31.4042 13.4873 30.515 13.9015Z" fill="#2F80ED"/>
</g>
<defs>
<clipPath id="clip0_314_1859">
<rect width="45" height="45" fill="white" transform="translate(0 0.776611)"/>
</clipPath>
</defs>
</svg>
