<svg width="34" height="30" viewBox="0 0 34 30" fill="none" xmlns="http://www.w3.org/2000/svg">
<path fill-rule="evenodd" clip-rule="evenodd" d="M27.0742 1H33.6937V0H26.6937H26.3132L26.2118 0.366707L23.9622 8.5H0.693726H1.14441e-05L0.219383 9.15811L5.21938 24.1581L5.33335 24.5H5.69373H20.1937H20.5742L20.6756 24.1333L24.8246 9.13329L27.0742 1ZM23.6856 9.5L19.8132 23.5H6.05411L1.38744 9.5H23.6856ZM14.6937 28C14.6937 29.1046 15.5892 30 16.6937 30C17.7983 30 18.6937 29.1046 18.6937 28C18.6937 26.8954 17.7983 26 16.6937 26C15.5892 26 14.6937 26.8954 14.6937 28ZM9.69373 30C8.58916 30 7.69373 29.1046 7.69373 28C7.69373 26.8954 8.58916 26 9.69373 26C10.7983 26 11.6937 26.8954 11.6937 28C11.6937 29.1046 10.7983 30 9.69373 30Z" fill="#333333"/>
</svg>
