<svg width="45" height="46" viewBox="0 0 45 46" fill="none" xmlns="http://www.w3.org/2000/svg">
<g clip-path="url(#clip0_314_1845)">
<circle cx="22.5" cy="23.4963" r="22" stroke="#27AE60"/>
<path d="M23 10.9963C16.4089 10.9963 11 16.4053 11 22.9963C11 25.1716 11.5865 27.2892 12.6987 29.1419L11 34.9963L16.8544 33.2977C18.7071 34.4099 20.8247 34.9963 23 34.9963C29.5911 34.9963 35 29.5874 35 22.9963C35 16.4053 29.5911 10.9963 23 10.9963ZM30.5026 28.0667L29.9443 28.625C29.1544 29.4149 27.3378 29.3523 26.1705 29.1269C22.2892 28.3773 17.7641 23.9911 16.8914 20.1928C16.4593 18.3112 16.6979 16.6754 17.3219 16.0511L17.8802 15.4929C18.1884 15.1849 18.689 15.1852 18.9968 15.4929L21.2303 17.7266C21.3793 17.8756 21.461 18.0732 21.461 18.2847C21.461 18.4962 21.3793 18.6939 21.2303 18.8424L20.6722 19.4012C20.0569 20.0179 20.0569 21.0197 20.6722 21.6349L24.3605 25.2747C24.9775 25.8918 25.9762 25.8925 26.5942 25.2747L27.1525 24.7166C27.4407 24.4268 27.979 24.4258 28.2696 24.7166L30.5026 26.9496C30.8058 27.2515 30.8173 27.7518 30.5026 28.0667Z" fill="#27AE60"/>
</g>
<defs>
<clipPath id="clip0_314_1845">
<rect width="45" height="45" fill="white" transform="translate(0 0.996338)"/>
</clipPath>
</defs>
</svg>
