<svg width="193" height="49" viewBox="0 0 193 49" fill="none" xmlns="http://www.w3.org/2000/svg">
<path d="M15.987 0.114502V9.25411H3.95663V0.114502H3.05176e-05V22.3503H3.95663V13.2107H15.987V22.3503H19.9582V0.114502H15.987Z" fill="#FAFAFA"/>
<path d="M31.3608 4.07111H43.6248V0.114502H31.3608C30.3972 0.114502 29.5066 0.275109 28.7182 0.596309C27.9298 0.917509 27.229 1.37011 26.645 1.95411C26.061 2.53811 25.6084 3.22431 25.2872 4.02731C24.966 4.83031 24.8054 5.72091 24.8054 6.66991V15.8095C24.8054 16.7731 24.966 17.6637 25.2872 18.4521C25.6084 19.2405 26.061 19.9413 26.645 20.5253C27.229 21.1093 27.9152 21.5619 28.7182 21.8831C29.5212 22.2043 30.4118 22.3649 31.3608 22.3649H43.6248V18.4083H31.3608C29.6672 18.4083 28.7766 17.5177 28.7766 15.8241V13.2399H43.6248V9.28331H28.762V6.66991C28.762 4.97631 29.6672 4.07111 31.3608 4.07111Z" fill="#FAFAFA"/>
<path d="M48.472 0.114502V22.3503H52.4432V4.07111H66.1672V0.114502H48.472Z" fill="#FAFAFA"/>
<path d="M115.369 18.3937V0.114502H111.413V0.581704L111.018 0.464906C110.274 0.231306 109.529 0.114502 108.828 0.114502H104.215C103.251 0.114502 102.361 0.275109 101.572 0.596309C100.769 0.917509 100.083 1.37011 99.499 1.95411C98.9296 2.53811 98.4624 3.22431 98.1412 4.02731C97.82 4.83031 97.6594 5.72091 97.6594 6.66991V18.3937H95.411V25.1243H97.1776L98.5792 22.3503H114.493L115.895 25.1243H117.661V18.3937H115.369ZM111.398 18.3937H101.616V6.66991C101.616 4.97631 102.507 4.0857 104.2 4.0857H108.799C109.573 4.0857 110.201 4.31931 110.683 4.80111C111.15 5.26831 111.398 5.9107 111.398 6.6845V18.3937Z" fill="#FAFAFA"/>
<path d="M138.496 0.114502V9.25411H126.465V0.114502H122.509V22.3503H126.465V13.2107H138.496V22.3503H142.467V0.114502H138.496Z" fill="#FAFAFA"/>
<path d="M166.776 4.0565C166.44 3.2535 165.987 2.56731 165.403 1.98331C164.819 1.39931 164.133 0.946706 163.33 0.610905C162.527 0.275106 161.651 0.114502 160.717 0.114502H153.855C152.935 0.114502 152.074 0.289706 151.271 0.610905C150.468 0.946706 149.767 1.41391 149.183 1.99791C148.599 2.58191 148.132 3.2827 147.796 4.0857C147.46 4.8887 147.299 5.75011 147.299 6.66991V15.8095C147.299 16.7731 147.46 17.6637 147.781 18.4521C148.102 19.2405 148.555 19.9413 149.139 20.5253C149.708 21.1093 150.409 21.5619 151.212 21.8831C152.015 22.2043 152.891 22.3649 153.855 22.3649H160.717C161.695 22.3649 162.6 22.2043 163.418 21.8977C164.221 21.5911 164.922 21.1385 165.491 20.5837C166.06 20.0143 166.498 19.3281 166.805 18.5251C167.112 17.7075 167.272 16.8023 167.272 15.8241V6.66991C167.272 5.73551 167.097 4.8595 166.776 4.0565ZM163.316 15.8095C163.316 17.5031 162.425 18.3937 160.731 18.3937H153.869C152.176 18.3937 151.285 17.5031 151.285 15.8095V6.66991C151.285 5.93991 151.533 5.3121 152.03 4.8157C152.526 4.3193 153.139 4.07111 153.884 4.07111H160.746C161.52 4.07111 162.148 4.3047 162.629 4.7865C163.097 5.2537 163.345 5.89611 163.345 6.66991V15.8095H163.316Z" fill="#FAFAFA"/>
<path d="M190.209 11.2397L190.399 11.0354C191.523 9.79435 192.078 8.31975 192.078 6.66995C192.078 5.77935 191.902 4.91794 191.567 4.12954C191.216 3.32654 190.749 2.62575 190.165 2.04175C189.581 1.45775 188.866 0.97595 188.077 0.64015C187.274 0.30435 186.427 0.12915 185.537 0.12915H172.134V22.3795H185.537C186.442 22.3795 187.303 22.2043 188.092 21.8685C188.88 21.5327 189.581 21.0509 190.165 20.4669C190.749 19.8829 191.231 19.1821 191.567 18.3937C191.902 17.6053 192.078 16.7439 192.078 15.8387C192.078 14.1889 191.508 12.7144 190.399 11.4734L190.209 11.2397ZM187.362 17.6345C186.865 18.1309 186.238 18.3937 185.537 18.3937H176.091V13.2107H185.537C186.252 13.2107 186.865 13.4589 187.362 13.9699C187.858 14.4663 188.121 15.0941 188.121 15.7949C188.121 16.4957 187.858 17.1381 187.362 17.6345ZM187.362 8.49495C186.865 8.99135 186.238 9.25415 185.537 9.25415H176.091V4.07115H185.537C186.252 4.07115 186.865 4.33395 187.362 4.83035C187.858 5.32675 188.121 5.95455 188.121 6.65535C188.121 7.37075 187.858 7.98395 187.362 8.49495Z" fill="#FAFAFA"/>
<path d="M86.5926 6.66992C88.7826 6.66992 90.5492 8.43652 90.5492 10.6265V15.8095C90.5492 16.7877 90.3886 17.6929 90.082 18.5105C89.7754 19.3135 89.3228 20.0143 88.768 20.5691C88.1986 21.1385 87.5124 21.5765 86.6948 21.8831C85.8918 22.1897 84.972 22.3503 83.9938 22.3503H77.1464C76.1828 22.3503 75.2922 22.1897 74.5038 21.8685C73.7008 21.5473 73.0146 21.0947 72.4306 20.5107C71.8466 19.9267 71.394 19.2405 71.0728 18.4375C70.7516 17.6345 70.591 16.7585 70.591 15.7949H74.5476C74.5476 17.4885 75.4382 18.3791 77.1318 18.3791H83.9792C85.41 18.3791 86.578 17.2257 86.578 15.7949V6.66992H86.5926Z" fill="#FAFAFA"/>
<path d="M90.5492 6.66995H86.5926C86.5926 5.89615 86.359 5.26834 85.8772 4.78654C85.41 4.31934 84.7676 4.07115 83.9938 4.07115H77.1464C76.4164 4.07115 75.7886 4.31935 75.2922 4.81575C74.7958 5.31215 74.5476 5.92535 74.5476 6.65535V15.7949C72.3576 15.7949 70.591 14.0138 70.591 11.8384V6.66995C70.591 5.76475 70.7516 4.88875 71.0874 4.10035C71.4232 3.29735 71.8904 2.59654 72.4744 2.01254C73.0584 1.42854 73.7738 0.961345 74.5622 0.625545C75.3652 0.289745 76.2266 0.12915 77.1464 0.12915H83.9938C84.9282 0.12915 85.8042 0.304345 86.6072 0.625545C87.4102 0.961345 88.0964 1.41395 88.6804 1.99795C89.2644 2.58195 89.717 3.26815 90.0528 4.07115C90.3886 4.85955 90.5492 5.73555 90.5492 6.66995Z" fill="#FAFAFA"/>
<path d="M27.12 44V32.48H28.632L32.808 41.144L36.96 32.48H38.488V43.992H36.904V36.112L33.184 44H32.424L28.696 36.112V44H27.12ZM42.3854 44L43.8414 41.016L39.8254 32.48H41.7054L44.7134 39.24L47.8014 32.48H49.5854L44.1934 44H42.3854ZM49.5663 44L54.1583 38.104L49.9423 32.48H51.9663L55.8303 37.752V32.48H57.5023V37.752L61.3663 32.48H63.3903L59.1743 38.104L63.7663 44H61.6703L57.5023 38.6V44H55.8303V38.6L51.6543 44H49.5663ZM69.2718 44.24C68.1198 44.24 67.1384 43.9893 66.3278 43.488C65.5171 42.9813 64.8958 42.2773 64.4638 41.376C64.0371 40.4747 63.8238 39.4293 63.8238 38.24C63.8238 37.0507 64.0371 36.0053 64.4638 35.104C64.8958 34.2027 65.5171 33.5013 66.3278 33C67.1384 32.4933 68.1198 32.24 69.2718 32.24C70.5998 32.24 71.6984 32.576 72.5677 33.248C73.4424 33.92 74.0504 34.824 74.3918 35.96L72.6958 36.416C72.4718 35.6107 72.0718 34.9787 71.4958 34.52C70.9251 34.0613 70.1838 33.832 69.2718 33.832C68.4558 33.832 67.7758 34.016 67.2318 34.384C66.6878 34.752 66.2771 35.2667 65.9998 35.928C65.7278 36.5893 65.5918 37.36 65.5918 38.24C65.5864 39.12 65.7198 39.8907 65.9918 40.552C66.2691 41.2133 66.6798 41.728 67.2238 42.096C67.7731 42.464 68.4558 42.648 69.2718 42.648C70.1838 42.648 70.9251 42.4187 71.4958 41.96C72.0718 41.496 72.4718 40.864 72.6958 40.064L74.3918 40.52C74.0504 41.656 73.4424 42.56 72.5677 43.232C71.6984 43.904 70.5998 44.24 69.2718 44.24ZM76.1513 44V32.48H77.8233V37.856L82.6473 32.48H84.7273L79.6313 38.104L85.1033 44H82.9593L77.8233 38.496V44H76.1513ZM95.2934 44V32.48H93.5974L87.9254 41.04V32.48H86.2294V44H87.9254L93.5974 35.432V44H95.2934ZM97.5263 44V32.48H104.886V34.056H99.1983V37.288H103.926V38.864H99.1983V42.424H104.886V44H97.5263ZM114.819 44.24C113.667 44.24 112.685 43.9893 111.875 43.488C111.064 42.9813 110.443 42.2773 110.011 41.376C109.584 40.4747 109.371 39.4293 109.371 38.24C109.371 37.0507 109.584 36.0053 110.011 35.104C110.443 34.2027 111.064 33.5013 111.875 33C112.685 32.4933 113.667 32.24 114.819 32.24C116.147 32.24 117.245 32.576 118.115 33.248C118.989 33.92 119.597 34.824 119.939 35.96L118.243 36.416C118.019 35.6107 117.619 34.9787 117.043 34.52C116.472 34.0613 115.731 33.832 114.819 33.832C114.003 33.832 113.323 34.016 112.779 34.384C112.235 34.752 111.824 35.2667 111.547 35.928C111.275 36.5893 111.139 37.36 111.139 38.24C111.133 39.12 111.267 39.8907 111.539 40.552C111.816 41.2133 112.227 41.728 112.771 42.096C113.32 42.464 114.003 42.648 114.819 42.648C115.731 42.648 116.472 42.4187 117.043 41.96C117.619 41.496 118.019 40.864 118.243 40.064L119.939 40.52C119.597 41.656 118.989 42.56 118.115 43.232C117.245 43.904 116.147 44.24 114.819 44.24ZM122.87 44L124.326 41.016L120.31 32.48H122.19L125.198 39.24L128.286 32.48H130.07L124.678 44H122.87ZM131.323 44V32.48H132.835L137.011 41.144L141.163 32.48H142.691V43.992H141.107V36.112L137.387 44H136.627L132.899 36.112V44H131.323ZM144.933 44V32.48H146.605V37.856L151.429 32.48H153.509L148.413 38.104L153.885 44H151.741L146.605 38.496V44H144.933ZM164.075 44V32.48H162.379L156.707 41.04V32.48H155.011V44H156.707L162.379 35.432V44H164.075Z" fill="#FAFAFA"/>
</svg>
