<svg width="24" height="25" viewBox="0 0 24 25" fill="none" xmlns="http://www.w3.org/2000/svg">
<path d="M12 0.996338C5.40894 0.996338 0 6.40527 0 12.9963C0 15.1716 0.586487 17.2892 1.69867 19.1419L0 24.9963L5.85443 23.2977C7.70709 24.4099 9.82471 24.9963 12 24.9963C18.5911 24.9963 24 19.5874 24 12.9963C24 6.40527 18.5911 0.996338 12 0.996338ZM19.5026 18.0667L18.9443 18.625C18.1544 19.4149 16.3378 19.3523 15.1705 19.1269C11.2892 18.3773 6.7641 13.9911 5.89142 10.1928C5.45929 8.31122 5.69788 6.67535 6.3219 6.05115L6.88019 5.49286C7.18835 5.18488 7.68897 5.18524 7.99677 5.49286L10.2303 7.72656C10.3793 7.87561 10.461 8.07318 10.461 8.28467C10.461 8.49616 10.3793 8.69391 10.2303 8.84241L9.67218 9.40125C9.05695 10.0179 9.05695 11.0197 9.67218 11.6349L13.3605 15.2747C13.9775 15.8918 14.9762 15.8925 15.5942 15.2747L16.1525 14.7166C16.4407 14.4268 16.979 14.4258 17.2696 14.7166L19.5026 16.9496C19.8058 17.2515 19.8173 17.7518 19.5026 18.0667Z" fill="#27AE60"/>
</svg>
