<svg width="25" height="25" viewBox="0 0 25 25" fill="none" xmlns="http://www.w3.org/2000/svg">
<path d="M12.5 0.223938C5.90894 0.223938 0.5 5.63287 0.5 12.2239C0.5 14.3992 1.08649 16.5168 2.19867 18.3695L0.5 24.2239L6.35443 22.5253C8.20709 23.6375 10.3247 24.2239 12.5 24.2239C19.0911 24.2239 24.5 18.815 24.5 12.2239C24.5 5.63287 19.0911 0.223938 12.5 0.223938ZM20.0026 17.2943L19.4443 17.8526C18.6544 18.6425 16.8378 18.5799 15.6705 18.3545C11.7892 17.6049 7.2641 13.2188 6.39142 9.42041C5.95929 7.53882 6.19788 5.90295 6.8219 5.27875L7.38019 4.72046C7.68835 4.41248 8.18897 4.41284 8.49677 4.72046L10.7303 6.95416C10.8793 7.10321 10.961 7.30078 10.961 7.51227C10.961 7.72376 10.8793 7.92151 10.7303 8.07001L10.1722 8.62885C9.55695 9.24554 9.55695 10.2473 10.1722 10.8625L13.8605 14.5023C14.4775 15.1194 15.4762 15.1201 16.0942 14.5023L16.6525 13.9442C16.9407 13.6544 17.479 13.6534 17.7696 13.9442L20.0026 16.1772C20.3058 16.4791 20.3173 16.9794 20.0026 17.2943Z" fill="#333333"/>
</svg>
